<svg width="12" height="12" viewBox="0 0 12 12" fill="none" xmlns="http://www.w3.org/2000/svg">
<circle cx="6" cy="6" r="5.5" stroke="#B8B8B8"/>
<path d="M7.74717 4.25278C7.67679 4.1824 7.56303 4.1824 7.49265 4.25278L5.99995 5.7455L4.50725 4.25278C4.43687 4.1824 4.32311 4.1824 4.25273 4.25278C4.18236 4.32316 4.18236 4.43692 4.25273 4.50729L5.74544 6.00002L4.25273 7.49274C4.18236 7.56312 4.18236 7.67687 4.25273 7.74725C4.28783 7.78235 4.33391 7.79999 4.37999 7.79999C4.42607 7.79999 4.47215 7.78235 4.50725 7.74725L5.99995 6.25453L7.49265 7.74725C7.52775 7.78235 7.57383 7.79999 7.61991 7.79999C7.66599 7.79999 7.71207 7.78235 7.74717 7.74725C7.81755 7.67687 7.81755 7.56312 7.74717 7.49274L6.25446 6.00002L7.74717 4.50729C7.81755 4.43692 7.81755 4.32316 7.74717 4.25278Z" fill="#6B6B6B"/>
</svg>
